PathFileType	4	(X/Y/Z)	D:\TRACE\v60_Jaco2_6-2-23\BothDRS_Motion1_4-platform.trc
DataRate	CameraRate	NumFrames	NumMarkers	Units	OrigDataRate	OrigDataStartFrame	OrigNumFrames
100.00	100.00	      47	5	mm	100.00	4362	      6979
Frame#	Time	Left_Front			Right_Front			Left_Aft			Right_Aft			Post			
		X1	Y1	Z1	X2	Y2	Z2	X3	Y3	Z3	X4	Y4	Z4	X5	Y5	Z5	

4362	43.610	-829.49304	-6.48013	-642.09430	740.60492	-4.92203	-647.43335	-737.64893	18.12942	492.69080	704.73816	17.83941	502.54410	-42.85746	1285.02881	-995.62805	
4363	43.620	-828.91357	-6.81034	-642.33630	741.32233	-5.48104	-647.48663	-736.98145	18.49434	492.35889	705.35736	18.01820	502.45715	-42.44344	1284.36780	-996.43622	
4364	43.630	-828.17920	-7.09888	-642.48059	742.15326	-5.98112	-647.39063	-736.10474	18.84452	492.30209	706.09705	18.19741	502.32739	-41.86322	1283.93481	-997.27441	
4365	43.640	-826.82574	-7.78273	-642.62561	742.78851	-6.35198	-647.74646	-735.45386	19.12083	492.15613	706.79871	18.39385	502.30060	-40.72367	1283.20276	-998.06018	
4366	43.650	-826.31464	-8.01559	-642.71393	743.64294	-6.74072	-647.87830	-734.34198	19.22927	492.52115	707.34900	18.70282	502.30063	-39.89927	1282.65295	-998.77637	
4367	43.660	-825.75854	-8.38187	-642.55157	744.47388	-6.92746	-647.80164	-733.72174	19.46487	492.26968	707.67322	18.70504	502.01205	-39.33527	1282.11279	-999.18414	
4368	43.670	-825.01544	-8.96680	-642.60992	745.28918	-7.38384	-647.73126	-732.69086	19.61011	492.12234	709.63446	19.47688	501.67264	-38.69707	1281.61401	-999.86774	
4369	43.680	-824.00574	-9.53982	-642.70013	746.13739	-7.86664	-647.99359	-732.09058	19.78987	491.98590	710.28973	19.73308	501.69421	-37.88428	1280.95166	-1000.57245	
4370	43.690	-823.03369	-9.97524	-642.67535	746.91589	-8.23798	-648.00085	-731.14874	20.19334	491.90845	710.89825	20.07961	501.72968	-36.86080	1280.34521	-1001.53302	
4371	43.700	-822.21478	-10.04623	-642.73840	747.74255	-8.54656	-648.18817	-730.41278	20.46383	491.90396	712.08618	20.49844	501.35449	-36.54079	1279.90381	-1001.91882	
4372	43.710	-821.64764	-10.01399	-643.11823	748.68823	-8.74167	-648.20233	-729.68256	20.81271	491.84195	712.87195	20.76486	501.32343	-35.37175	1279.26501	-1002.90399	
4373	43.720	-820.51678	-10.26139	-643.40283	749.39612	-9.02615	-648.34613	-728.79315	21.05755	491.64355	713.62952	20.94126	501.26639	-34.35863	1278.41870	-1003.60132	
4374	43.730	-819.69336	-11.00389	-643.18329	750.31750	-9.84093	-648.46399	-727.69940	21.28484	491.36258	714.62482	21.23737	501.08261	-33.98188	1277.98254	-1004.83405	
4375	43.740	-818.81219	-11.67513	-643.24207	751.30011	-10.43175	-648.56598	-727.08502	21.42373	491.18689	715.39441	21.48364	501.01865	-33.03687	1277.38733	-1005.73218	
4376	43.750	-817.99323	-11.99643	-643.73480	752.11676	-10.47027	-648.72656	-725.79773	21.79503	491.29965	716.33386	21.89297	500.97937	-31.81954	1276.66992	-1006.35931	
4377	43.760	-816.98450	-12.13097	-643.87982	752.75909	-10.94416	-648.68921	-725.29468	22.00772	491.16278	717.20447	22.02951	500.89609	-30.80920	1276.03333	-1007.45825	
4378	43.770	-816.25732	-12.43347	-643.57080	753.64441	-11.23766	-648.81726	-724.43683	22.19733	491.21323	718.23059	22.36760	500.87958	-30.36172	1275.56421	-1008.87231	
4379	43.780	-815.35016	-13.01463	-643.37585	754.64368	-11.74658	-649.01971	-723.46429	22.52503	491.11478	719.05103	22.58487	500.80264	-29.36525	1275.04407	-1009.64038	
4380	43.790	-814.47040	-13.30946	-643.68732	755.63379	-11.86356	-648.99493	-722.59766	22.49900	490.02377	719.73541	22.79239	500.74649	-28.22448	1274.45593	-1010.63391	
4381	43.800	-813.57324	-13.87291	-644.09442	756.19507	-12.23364	-648.91785	-721.80566	22.56575	489.91263	720.56848	22.77919	500.34119	-27.21781	1274.20142	-1011.33356	
4382	43.810	-812.66754	-13.92928	-643.98431	757.53979	-12.71904	-649.06158	-720.66357	22.72213	489.96054	721.92053	23.06360	500.35590	-26.36272	1273.73706	-1012.05786	
4383	43.820	-811.73999	-14.13317	-643.61292	758.46790	-12.83397	-649.09369	-720.18854	23.16146	490.08127	722.53918	23.30237	500.30228	-25.99858	1273.42249	-1012.49481	
4384	43.830	-810.57239	-14.32917	-643.89819	759.07367	-12.81461	-649.27087	-719.13495	23.56758	490.05096	723.26337	23.64352	500.20691	-24.92421	1273.09619	-1013.22424	
4385	43.840	-809.97198	-14.38155	-644.13910	760.14709	-13.15887	-649.32379	-718.31348	23.82311	490.16336	724.52991	23.74996	499.99716	-23.74850	1272.52478	-1013.51978	
4386	43.850	-808.87482	-14.89123	-643.98914	761.03961	-13.52306	-649.52515	-716.96021	23.57865	489.62390	725.03851	23.82268	500.03287	-23.23889	1272.22119	-1013.63959	
4387	43.860	-807.98022	-15.31584	-643.99036	762.05359	-13.73270	-649.48016	-716.05188	23.80114	489.42661	726.14392	23.98915	499.82498	-22.32639	1271.75818	-1013.71161	
4388	43.870	-806.70618	-15.51599	-644.32947	762.93109	-14.00084	-649.61987	-715.14648	23.99583	489.41818	727.47742	24.34713	499.84711	-20.86582	1271.29321	-1013.60956	
4389	43.880	-806.18530	-15.67437	-644.38086	763.84845	-14.31248	-649.72668	-713.83032	23.74022	489.78827	728.18384	24.55223	499.84921	-20.18622	1270.88672	-1013.86194	
4390	43.890	-805.24475	-15.74333	-644.43109	764.91858	-14.47075	-649.62347	-712.98706	24.28784	489.75018	729.38995	24.78403	499.75543	-19.21034	1270.53918	-1014.67517	
4391	43.900	-803.92523	-16.24099	-644.50629	765.76764	-14.85708	-649.76306	-712.09106	24.48893	489.72620	730.09436	24.79762	499.64545	-18.55109	1270.12439	-1015.31012	
4392	43.910	-803.05670	-16.60302	-644.67352	766.79565	-15.01217	-649.79547	-711.27606	24.78647	489.68567	730.96100	24.99071	499.62299	-17.24964	1269.57239	-1016.28186	
4393	43.920	-802.45087	-16.85618	-644.72925	767.79816	-15.42213	-649.89612	-710.34320	24.86522	489.60385	732.19550	25.36738	499.63907	-16.59186	1269.29187	-1016.89667	
4394	43.930	-801.24268	-17.27881	-644.63361	768.70343	-15.74610	-649.80817	-709.45868	24.96148	489.56131	733.00574	25.49757	499.50937	-15.59984	1268.95215	-1017.81946	
4395	43.940	-800.11786	-17.22141	-644.53333	769.56909	-16.05318	-649.95697	-708.47369	25.22620	489.62885	734.01831	25.54505	499.43970	-14.29639	1268.47510	-1019.14807	
4396	43.950	-799.45074	-17.37802	-644.65778	770.55994	-15.88550	-650.01471	-707.43634	25.26000	489.64856	734.99707	25.61835	499.40521	-13.77887	1268.39478	-1019.58521	
4397	43.960	-798.54077	-17.58914	-644.73022	771.73322	-16.02566	-649.96893	-706.45697	25.39071	489.66666	735.47333	25.77582	499.44611	-12.20515	1268.12549	-1020.53821	
4398	43.970	-797.33716	-18.02011	-644.80994	772.47375	-16.41627	-650.02216	-705.39801	25.44480	489.58264	737.02008	25.98435	499.23660	-11.70045	1267.83008	-1020.79968	
4399	43.980	-796.22382	-18.13943	-644.84784	773.53827	-16.59211	-650.14240	-704.48383	25.48126	489.52661	737.64423	25.95532	499.13058	-10.56388	1267.53186	-1021.20184	
4400	43.990	-795.47198	-18.31133	-644.47980	774.52655	-16.45345	-650.10425	-703.62299	25.67504	489.49124	738.79059	26.08712	498.99472	-9.21424	1267.38220	-1021.32477	
4401	44.000	-794.61029	-18.22911	-644.81805	775.53931	-16.52926	-650.00818	-702.65448	25.73335	489.36209	739.77661	26.19871	498.91806	-8.63035	1267.06519	-1021.43585	
4402	44.010	-793.37482	-18.41770	-644.80499	776.34192	-16.78442	-650.06519	-701.72003	26.00340	489.42090	740.33270	26.38370	498.94687	-8.20000	1266.86621	-1021.46008	
4403	44.020	-792.57391	-18.66265	-644.93219	777.47687	-16.96539	-650.13226	-700.78448	26.14483	489.43839	741.62933	26.53083	498.99850	-6.82254	1266.62866	-1021.38770	
4404	44.030	-791.74597	-18.90824	-644.88989	778.47504	-17.22446	-650.32068	-699.69238	26.28237	489.32367	742.77667	26.63910	498.85995	-5.59804	1266.59961	-1021.08063	
4405	44.040	-790.55151	-19.01857	-645.13684	779.27344	-17.29903	-650.20111	-698.98364	26.25447	489.12302	743.54211	26.71028	498.95050	-4.94074	1266.33142	-1021.09479	
4406	44.050	-789.60352	-18.95187	-645.17407	780.25171	-17.31102	-650.24829	-697.82361	26.22460	489.12775	744.74335	26.83639	498.97348	-4.33754	1266.05737	-1021.09253	
4407	44.060	-788.80066	-19.04179	-645.10065	781.26483	-17.48073	-650.54144	-696.75519	26.14766	489.25580	745.31219	26.82094	498.87939	-3.14113	1265.81165	-1020.97089	
4408	44.070	-787.93243	-19.29249	-645.09576	782.26404	-17.59466	-650.50836	-695.72919	26.11678	489.49985	746.63965	27.08451	498.82770	-1.92489	1265.73889	-1021.35809	
